PathFileType	4	(X/Y/Z)	c:/Users/goper/Files/vsCode/490R/osim_files/C03/C03_fast_02.trc
DataRate	CameraRate	NumFrames	NumMarkers	Units                	OrigDataRate	OrigDataStartFrame	OrigNumFrames
250.00	250.00	4	36	mm	250.0	1360	2718
                Frame#	Time	LPSIS			LASIS			LTH1			LTH2			LTH3			LTH4			LLFE			LMFE			LSH1			LSH2			LSH3			LSH4			LLMAL			LMMAL			LCAL			LMTP5			LTOE			LMTP1			RPSIS			RASIS			RTH1			RTH2			RTH3			RTH4			RLFE			RMFE			RSH1			RSH2			RSH3			RSH4			RLMAL			RMMAL			RCAL			RMTP1			RTOE			RMTP5		
		X1	Y1	Z1	X2	Y2	Z2	X3	Y3	Z3	X4	Y4	Z4	X5	Y5	Z5	X6	Y6	Z6	X7	Y7	Z7	X8	Y8	Z8	X9	Y9	Z9	X10	Y10	Z10	X11	Y11	Z11	X12	Y12	Z12	X13	Y13	Z13	X14	Y14	Z14	X15	Y15	Z15	X16	Y16	Z16	X17	Y17	Z17	X18	Y18	Z18	X19	Y19	Z19	X20	Y20	Z20	X21	Y21	Z21	X22	Y22	Z22	X23	Y23	Z23	X24	Y24	Z24	X25	Y25	Z25	X26	Y26	Z26	X27	Y27	Z27	X28	Y28	Z28	X29	Y29	Z29	X30	Y30	Z30	X31	Y31	Z31	X32	Y32	Z32	X33	Y33	Z33	X34	Y34	Z34	X35	Y35	Z35	X36	Y36	Z36

1360	5.43600	-540.40558	1042.51538	294.75101	-715.17859	982.21136	345.66907	-682.33801	629.02289	373.87390	-702.83472	570.47937	369.20621	-753.69464	647.38147	389.76828	-764.94769	587.16095	382.12213	-731.71655	500.82535	370.69705	-752.61932	484.25494	260.99258	-566.75037	418.63788	359.87875	-537.27722	381.83978	357.56012	-608.89410	379.81720	379.27710	-573.21393	348.54327	374.49478	-451.39761	236.27229	348.43381	-482.61087	223.06853	275.01794	-383.69061	260.61798	307.05658	-488.57892	96.42706	379.30588	-529.42639	85.07911	329.36835	-505.55099	91.21881	287.31326	-553.98077	1042.25024	182.10910	-726.17615	997.96326	141.65021	-620.88971	612.29156	117.96627	-624.17773	551.81598	133.00725	-683.06177	616.94226	101.37730	-696.77460	556.99139	112.51780	-697.84589	486.81302	133.18678	-675.78088	507.52451	239.10538	-602.39807	304.05243	120.76501	-604.23981	256.61298	124.70486	-664.44153	296.92740	117.19651	-655.89435	254.33417	120.64626	-637.08936	100.62036	147.83096	-646.06250	106.28957	231.62535	-564.18988	66.60135	182.26286	-765.80817	51.71373	240.38039	-796.14917	66.26942	202.14900	-749.73486	38.61151	133.62891
1361	5.44000	-546.57587	1043.47986	294.89951	-722.23022	983.40491	345.54556	-691.38635	630.49994	374.61633	-712.99561	572.23206	368.91339	-763.22369	649.76086	389.27246	-775.24115	589.77106	381.22964	-742.74652	502.78131	369.83792	-763.60126	486.77512	260.06796	-579.02264	417.76624	359.47858	-550.10559	380.53601	357.15576	-621.79028	379.64728	378.65790	-586.69006	347.72147	373.81262	-466.54565	233.61310	347.97748	-497.44556	221.28896	273.71201	-398.05383	256.03464	306.70911	-507.47430	94.89758	379.07401	-548.49255	84.56175	329.10690	-524.74347	89.95639	287.34207	-560.12775	1043.16431	182.20851	-732.08289	998.60498	141.35759	-623.79175	613.13983	117.86008	-626.17749	552.72705	132.83362	-685.94287	617.20221	101.19382	-699.03992	557.17932	112.30396	-699.58197	486.96622	132.95715	-677.63788	507.82489	239.06627	-603.18152	304.61292	120.81124	-604.48926	257.28867	124.63885	-665.39026	297.26202	117.10365	-656.65833	254.67944	120.57186	-637.54272	100.52943	148.16281	-646.23712	106.48855	231.59607	-564.32281	66.87944	182.26376	-766.07031	51.89539	240.20772	-796.30225	66.17040	202.11734	-749.80298	38.61459	133.60658
1362	5.44400	-553.67432	1044.64526	294.47000	-728.76086	984.49835	345.27194	-701.01172	631.85034	375.07544	-723.15472	574.02271	368.73300	-772.51068	652.12402	388.84985	-785.29297	592.26514	380.61554	-753.69421	504.67175	369.07111	-774.27209	489.22345	259.42493	-591.16479	416.76624	359.14914	-562.96899	378.99469	356.76337	-634.76190	379.37680	378.02631	-600.19177	346.83179	373.15424	-482.02924	230.79254	347.51373	-513.16443	218.98932	273.43552	-412.62885	251.27229	306.33392	-526.46942	93.33113	378.90112	-567.67694	84.03557	328.87854	-543.91571	88.68243	287.20016	-566.38251	1043.96338	182.32112	-738.23303	999.32562	140.98471	-626.57410	614.07385	117.80393	-628.46295	553.55792	132.71570	-688.91980	617.40442	101.08004	-701.38440	557.21765	112.08877	-701.18433	487.09586	132.78476	-679.57617	508.11597	239.07663	-603.90192	305.18539	120.96465	-605.10852	257.82352	124.75618	-666.09717	297.53961	117.02718	-657.20660	254.98303	120.47276	-637.88440	100.82214	148.27950	-646.52545	106.70417	231.60846	-564.21686	67.12838	182.10780	-766.11572	51.82175	240.16954	-796.44708	66.04891	202.12982	-749.81506	38.59521	133.57695
1363	5.44800	-560.11530	1045.46924	294.54703	-735.20135	985.33362	344.95850	-710.46698	633.48242	374.86450	-733.13947	575.72522	368.48907	-781.83093	654.35883	388.41293	-795.14484	594.65936	379.97311	-764.43634	506.55521	368.32501	-785.03418	491.92453	258.57141	-603.44269	415.78265	359.08322	-575.74701	377.45245	356.51416	-647.64563	379.03625	377.41901	-613.68616	345.91003	372.57758	-498.22372	228.16258	347.46240	-528.91669	216.68571	273.03336	-427.36343	246.30327	305.96310	-545.63422	91.78645	378.70596	-587.00555	83.52573	328.67804	-562.97015	87.42451	287.04224	-572.52808	1044.69788	182.45915	-744.52100	999.95245	140.56384	-629.55762	614.92365	117.80040	-630.98334	554.38110	132.77287	-691.76117	617.60809	100.96661	-703.61011	557.33643	111.98859	-702.76593	487.10614	132.73479	-681.57739	508.41235	239.06621	-604.72681	305.69403	121.15878	-605.68585	258.30847	124.96183	-666.90912	297.87610	116.96288	-657.69104	255.27081	120.46433	-638.09448	101.16106	148.31415	-646.85956	106.97794	231.67020	-564.61298	67.44604	182.33553	-765.62048	51.34517	239.93190	-796.74628	66.10094	202.20195	-749.85571	38.59474	133.56902
